<svg width="1211" height="729" viewBox="0 0 1211 729" fill="none" xmlns="http://www.w3.org/2000/svg">
<rect width="1210" height="728" fill="#818181"/>
<path d="M1054.78 728.3H348.318C345.897 728.3 343.526 727.614 341.478 726.322C339.431 725.03 337.791 723.185 336.748 721L1.24819 18.35C0.316524 16.3952 -0.105217 14.2365 0.0222498 12.0748C0.149716 9.91308 0.822244 7.81883 1.97718 5.9871C3.13212 4.15537 4.73189 2.64576 6.62747 1.5989C8.52304 0.552041 10.6527 0.00199414 12.8182 0H1197.21C1199.11 0.00056791 1200.98 0.423232 1202.7 1.23743C1204.42 2.05163 1205.93 3.23701 1207.13 4.70787C1208.33 6.17873 1209.19 7.8983 1209.65 9.74226C1210.11 11.5862 1210.15 13.5085 1209.77 15.37L1067.34 718.03C1066.75 720.928 1065.18 723.535 1062.89 725.407C1060.6 727.279 1057.74 728.301 1054.78 728.3V728.3Z" fill="#818181"/>
<path opacity="0.2" d="M941.928 718.95V545.72C941.928 543.216 940.934 540.813 939.164 539.042C937.394 537.27 934.993 536.273 932.488 536.27H808.278C805.774 536.27 803.371 535.276 801.599 533.506C799.828 531.736 798.831 529.335 798.828 526.83V504.61C798.828 502.106 797.834 499.704 796.064 497.932C794.294 496.16 791.893 495.163 789.388 495.16H650.388C649.147 495.16 647.918 495.405 646.772 495.88C645.625 496.354 644.583 497.051 643.706 497.928C642.828 498.806 642.132 499.847 641.657 500.994C641.183 502.14 640.938 503.369 640.938 504.61V558.12C640.938 560.625 639.944 563.027 638.174 564.799C636.404 566.571 634.003 567.568 631.498 567.57H403.588C401.823 567.566 400.091 568.054 398.588 568.98L331.838 610.39C329.768 611.692 328.283 613.747 327.697 616.121C327.112 618.496 327.47 621.005 328.698 623.12L331.178 627.34C331.838 628.463 332.259 629.71 332.414 631.003C332.569 632.296 332.455 633.607 332.08 634.854C331.704 636.101 331.075 637.257 330.231 638.249C329.388 639.241 328.348 640.049 327.178 640.62L312.528 647.82C310.293 648.912 308.58 650.841 307.759 653.19C306.939 655.538 307.079 658.114 308.148 660.36L338.148 723.36C338.916 724.977 340.127 726.342 341.641 727.296C343.155 728.25 344.909 728.755 346.698 728.75C404.308 728.61 860.368 727.5 932.368 728.39C933.618 728.407 934.859 728.176 936.019 727.709C937.179 727.242 938.234 726.55 939.124 725.671C940.014 724.793 940.72 723.746 941.201 722.592C941.682 721.438 941.93 720.2 941.928 718.95V718.95Z" fill="#181818"/>
<path opacity="0.2" d="M1082.18 317.02V296.96C1082.18 295.254 1080.8 293.87 1079.09 293.87H1070.21C1068.5 293.87 1067.12 295.254 1067.12 296.96V317.02C1067.12 318.727 1068.5 320.11 1070.21 320.11H1079.09C1080.8 320.11 1082.18 318.727 1082.18 317.02Z" fill="#181818"/>
<path opacity="0.2" d="M1102.98 317.03V296.97C1102.98 295.263 1101.6 293.88 1099.89 293.88H1091.01C1089.3 293.88 1087.92 295.263 1087.92 296.97V317.03C1087.92 318.736 1089.3 320.12 1091.01 320.12H1099.89C1101.6 320.12 1102.98 318.736 1102.98 317.03Z" fill="#181818"/>
<path opacity="0.2" d="M1082.19 345.64V325.58C1082.19 323.874 1080.81 322.49 1079.1 322.49H1070.22C1068.51 322.49 1067.13 323.874 1067.13 325.58V345.64C1067.13 347.347 1068.51 348.73 1070.22 348.73H1079.1C1080.81 348.73 1082.19 347.347 1082.19 345.64Z" fill="#181818"/>
<path opacity="0.2" d="M1102.98 345.64V325.58C1102.98 323.874 1101.6 322.49 1099.89 322.49H1091.01C1089.3 322.49 1087.92 323.874 1087.92 325.58V345.64C1087.92 347.347 1089.3 348.73 1091.01 348.73H1099.89C1101.6 348.73 1102.98 347.347 1102.98 345.64Z" fill="#181818"/>
<path opacity="0.2" d="M1123.8 317.02V296.96C1123.8 295.254 1122.42 293.87 1120.71 293.87H1111.83C1110.12 293.87 1108.74 295.254 1108.74 296.96V317.02C1108.74 318.727 1110.12 320.11 1111.83 320.11H1120.71C1122.42 320.11 1123.8 318.727 1123.8 317.02Z" fill="#181818"/>
<path opacity="0.2" d="M1123.8 345.64V325.58C1123.8 323.874 1122.42 322.49 1120.71 322.49H1111.83C1110.12 322.49 1108.74 323.874 1108.74 325.58V345.64C1108.74 347.347 1110.12 348.73 1111.83 348.73H1120.71C1122.42 348.73 1123.8 347.347 1123.8 345.64Z" fill="#181818"/>
<path opacity="0.2" d="M1134.87 82.3101V62.2501C1134.87 60.5436 1133.48 59.1602 1131.78 59.1602H1122.9C1121.19 59.1602 1119.81 60.5436 1119.81 62.2501V82.3101C1119.81 84.0166 1121.19 85.4001 1122.9 85.4001H1131.78C1133.48 85.4001 1134.87 84.0166 1134.87 82.3101Z" fill="#181818"/>
<path opacity="0.2" d="M1155.67 82.3199V62.26C1155.67 60.5534 1154.29 59.1699 1152.58 59.1699H1143.7C1141.99 59.1699 1140.61 60.5534 1140.61 62.26V82.3199C1140.61 84.0265 1141.99 85.4099 1143.7 85.4099H1152.58C1154.29 85.4099 1155.67 84.0265 1155.67 82.3199Z" fill="#181818"/>
<path opacity="0.2" d="M1134.87 110.93V90.8702C1134.87 89.1637 1133.48 87.7803 1131.78 87.7803H1122.9C1121.19 87.7803 1119.81 89.1637 1119.81 90.8702V110.93C1119.81 112.637 1121.19 114.02 1122.9 114.02H1131.78C1133.48 114.02 1134.87 112.637 1134.87 110.93Z" fill="#181818"/>
<path opacity="0.2" d="M1155.66 110.93V90.8704C1155.66 89.1638 1154.27 87.7803 1152.57 87.7803H1143.69C1141.98 87.7803 1140.6 89.1638 1140.6 90.8704V110.93C1140.6 112.637 1141.98 114.02 1143.69 114.02H1152.57C1154.27 114.02 1155.66 112.637 1155.66 110.93Z" fill="#181818"/>
<path opacity="0.2" d="M1176.49 82.3102V62.2501C1176.49 60.5436 1175.1 59.1602 1173.4 59.1602H1164.52C1162.81 59.1602 1161.43 60.5436 1161.43 62.2501V82.3102C1161.43 84.0167 1162.81 85.4001 1164.52 85.4001H1173.4C1175.1 85.4001 1176.49 84.0167 1176.49 82.3102Z" fill="#181818"/>
<path opacity="0.2" d="M1176.48 110.93V90.8702C1176.48 89.1637 1175.1 87.7803 1173.39 87.7803H1164.51C1162.8 87.7803 1161.42 89.1637 1161.42 90.8702V110.93C1161.42 112.637 1162.8 114.02 1164.51 114.02H1173.39C1175.1 114.02 1176.48 112.637 1176.48 110.93Z" fill="#181818"/>
<path opacity="0.2" d="M825.238 667.89V647.83C825.238 646.124 823.855 644.74 822.148 644.74H813.268C811.562 644.74 810.178 646.124 810.178 647.83V667.89C810.178 669.597 811.562 670.98 813.268 670.98H822.148C823.855 670.98 825.238 669.597 825.238 667.89Z" fill="#181818"/>
<path opacity="0.2" d="M825.238 696.5V676.44C825.238 674.733 823.855 673.35 822.148 673.35H813.268C811.562 673.35 810.178 674.733 810.178 676.44V696.5C810.178 698.206 811.562 699.59 813.268 699.59H822.148C823.855 699.59 825.238 698.206 825.238 696.5Z" fill="#181818"/>
<path opacity="0.2" d="M846.059 667.89V647.83C846.059 646.124 844.675 644.74 842.969 644.74H834.089C832.382 644.74 830.999 646.124 830.999 647.83V667.89C830.999 669.597 832.382 670.98 834.089 670.98H842.969C844.675 670.98 846.059 669.597 846.059 667.89Z" fill="#181818"/>
<path opacity="0.2" d="M825.238 639.09V619.03C825.238 617.324 823.855 615.94 822.148 615.94H813.268C811.562 615.94 810.178 617.324 810.178 619.03V639.09C810.178 640.797 811.562 642.18 813.268 642.18H822.148C823.855 642.18 825.238 640.797 825.238 639.09Z" fill="#181818"/>
<path opacity="0.2" d="M846.059 639.09V619.03C846.059 617.324 844.675 615.94 842.969 615.94H834.089C832.382 615.94 830.999 617.324 830.999 619.03V639.09C830.999 640.797 832.382 642.18 834.089 642.18H842.969C844.675 642.18 846.059 640.797 846.059 639.09Z" fill="#181818"/>
<path opacity="0.2" d="M846.059 696.5V676.44C846.059 674.733 844.675 673.35 842.969 673.35H834.089C832.382 673.35 830.999 674.733 830.999 676.44V696.5C830.999 698.206 832.382 699.59 834.089 699.59H842.969C844.675 699.59 846.059 698.206 846.059 696.5Z" fill="#181818"/>
<path opacity="0.2" d="M830.828 60.4899V40.4299C830.828 38.7233 829.445 37.3398 827.738 37.3398H818.858C817.152 37.3398 815.768 38.7233 815.768 40.4299V60.4899C815.768 62.1964 817.152 63.5798 818.858 63.5798H827.738C829.445 63.5798 830.828 62.1964 830.828 60.4899Z" fill="#181818"/>
<path opacity="0.2" d="M830.828 89.1002V69.0402C830.828 67.3337 829.445 65.9502 827.738 65.9502H818.858C817.152 65.9502 815.768 67.3337 815.768 69.0402V89.1002C815.768 90.8068 817.152 92.1902 818.858 92.1902H827.738C829.445 92.1902 830.828 90.8068 830.828 89.1002Z" fill="#181818"/>
<path opacity="0.2" d="M851.648 60.4898V40.4298C851.648 38.7232 850.265 37.3398 848.558 37.3398H839.678C837.972 37.3398 836.588 38.7232 836.588 40.4298V60.4898C836.588 62.1964 837.972 63.5798 839.678 63.5798H848.558C850.265 63.5798 851.648 62.1964 851.648 60.4898Z" fill="#181818"/>
<path opacity="0.2" d="M830.828 31.6901V11.6301C830.828 9.92351 829.445 8.54004 827.738 8.54004H818.858C817.152 8.54004 815.768 9.92351 815.768 11.6301V31.6901C815.768 33.3966 817.152 34.78 818.858 34.78H827.738C829.445 34.78 830.828 33.3966 830.828 31.6901Z" fill="#181818"/>
<path opacity="0.2" d="M851.648 31.69V11.63C851.648 9.92344 850.265 8.54004 848.558 8.54004H839.678C837.972 8.54004 836.588 9.92344 836.588 11.63V31.69C836.588 33.3966 837.972 34.78 839.678 34.78H848.558C850.265 34.78 851.648 33.3966 851.648 31.69Z" fill="#181818"/>
<path opacity="0.2" d="M851.648 89.1002V69.0402C851.648 67.3336 850.265 65.9502 848.558 65.9502H839.678C837.972 65.9502 836.588 67.3336 836.588 69.0402V89.1002C836.588 90.8067 837.972 92.1902 839.678 92.1902H848.558C850.265 92.1902 851.648 90.8067 851.648 89.1002Z" fill="#181818"/>
<path opacity="0.2" d="M946.719 60.4899V40.4298C946.719 38.7232 945.335 37.3398 943.629 37.3398H934.749C933.042 37.3398 931.659 38.7232 931.659 40.4298V60.4899C931.659 62.1964 933.042 63.5798 934.749 63.5798H943.629C945.335 63.5798 946.719 62.1964 946.719 60.4899Z" fill="#181818"/>
<path opacity="0.2" d="M946.719 89.1002V69.0402C946.719 67.3336 945.335 65.9502 943.629 65.9502H934.749C933.042 65.9502 931.659 67.3336 931.659 69.0402V89.1002C931.659 90.8068 933.042 92.1902 934.749 92.1902H943.629C945.335 92.1902 946.719 90.8068 946.719 89.1002Z" fill="#181818"/>
<path opacity="0.2" d="M967.538 60.4899V40.4299C967.538 38.7234 966.155 37.3398 964.448 37.3398H955.568C953.862 37.3398 952.478 38.7234 952.478 40.4299V60.4899C952.478 62.1964 953.862 63.5798 955.568 63.5798H964.448C966.155 63.5798 967.538 62.1964 967.538 60.4899Z" fill="#181818"/>
<path opacity="0.2" d="M946.719 31.6901V11.63C946.719 9.92344 945.335 8.54004 943.629 8.54004H934.749C933.042 8.54004 931.659 9.92344 931.659 11.63V31.6901C931.659 33.3966 933.042 34.78 934.749 34.78H943.629C945.335 34.78 946.719 33.3966 946.719 31.6901Z" fill="#181818"/>
<path opacity="0.2" d="M967.538 31.6901V11.6301C967.538 9.92357 966.155 8.54004 964.448 8.54004H955.568C953.862 8.54004 952.478 9.92357 952.478 11.6301V31.6901C952.478 33.3966 953.862 34.78 955.568 34.78H964.448C966.155 34.78 967.538 33.3966 967.538 31.6901Z" fill="#181818"/>
<path opacity="0.2" d="M967.549 89.1002V69.0403C967.549 67.3337 966.165 65.9502 964.459 65.9502H955.579C953.872 65.9502 952.489 67.3337 952.489 69.0403V89.1002C952.489 90.8068 953.872 92.1902 955.579 92.1902H964.459C966.165 92.1902 967.549 90.8068 967.549 89.1002Z" fill="#181818"/>
<path opacity="0.2" d="M899.188 47.7799V27.7199C899.188 26.0133 897.805 24.6299 896.098 24.6299H887.218C885.512 24.6299 884.128 26.0133 884.128 27.7199V47.7799C884.128 49.4865 885.512 50.8699 887.218 50.8699H896.098C897.805 50.8699 899.188 49.4865 899.188 47.7799Z" fill="#181818"/>
<path opacity="0.2" d="M783.288 47.7798V27.7198C783.288 26.0133 781.905 24.6299 780.198 24.6299H771.318C769.612 24.6299 768.228 26.0133 768.228 27.7198V47.7798C768.228 49.4864 769.612 50.8699 771.318 50.8699H780.198C781.905 50.8699 783.288 49.4864 783.288 47.7798Z" fill="#181818"/>
<path opacity="0.2" d="M667.398 47.7798V27.7198C667.398 26.0133 666.015 24.6299 664.308 24.6299H655.428C653.722 24.6299 652.338 26.0133 652.338 27.7198V47.7798C652.338 49.4864 653.722 50.8699 655.428 50.8699H664.308C666.015 50.8699 667.398 49.4864 667.398 47.7798Z" fill="#181818"/>
<path opacity="0.2" d="M428.608 47.7799V27.7199C428.608 26.0133 427.225 24.6299 425.518 24.6299H416.638C414.932 24.6299 413.548 26.0133 413.548 27.7199V47.7799C413.548 49.4864 414.932 50.8699 416.638 50.8699H425.518C427.225 50.8699 428.608 49.4864 428.608 47.7799Z" fill="#181818"/>
<path opacity="0.2" d="M1006.86 60.8805V40.8204C1006.86 39.1139 1005.47 37.7305 1003.77 37.7305H994.888C993.182 37.7305 991.798 39.1139 991.798 40.8204V60.8805C991.798 62.5871 993.182 63.9705 994.888 63.9705H1003.77C1005.47 63.9705 1006.86 62.5871 1006.86 60.8805Z" fill="#181818"/>
<path opacity="0.2" d="M521.118 667.89V647.83C521.118 646.124 519.735 644.74 518.028 644.74H509.148C507.442 644.74 506.058 646.124 506.058 647.83V667.89C506.058 669.597 507.442 670.98 509.148 670.98H518.028C519.735 670.98 521.118 669.597 521.118 667.89Z" fill="#181818"/>
<path opacity="0.2" d="M521.129 696.5V676.44C521.129 674.733 519.746 673.35 518.039 673.35H509.159C507.452 673.35 506.069 674.733 506.069 676.44V696.5C506.069 698.206 507.452 699.59 509.159 699.59H518.039C519.746 699.59 521.129 698.206 521.129 696.5Z" fill="#181818"/>
<path opacity="0.2" d="M541.948 667.89V647.83C541.948 646.124 540.565 644.74 538.858 644.74H529.978C528.272 644.74 526.888 646.124 526.888 647.83V667.89C526.888 669.597 528.272 670.98 529.978 670.98H538.858C540.565 670.98 541.948 669.597 541.948 667.89Z" fill="#181818"/>
<path opacity="0.2" d="M521.118 639.09V619.03C521.118 617.324 519.735 615.94 518.028 615.94H509.148C507.442 615.94 506.058 617.324 506.058 619.03V639.09C506.058 640.797 507.442 642.18 509.148 642.18H518.028C519.735 642.18 521.118 640.797 521.118 639.09Z" fill="#181818"/>
<path opacity="0.2" d="M541.948 639.09V619.03C541.948 617.324 540.565 615.94 538.858 615.94H529.978C528.272 615.94 526.888 617.324 526.888 619.03V639.09C526.888 640.797 528.272 642.18 529.978 642.18H538.858C540.565 642.18 541.948 640.797 541.948 639.09Z" fill="#181818"/>
<path opacity="0.2" d="M541.948 696.5V676.44C541.948 674.733 540.565 673.35 538.858 673.35H529.978C528.272 673.35 526.888 674.733 526.888 676.44V696.5C526.888 698.206 528.272 699.59 529.978 699.59H538.858C540.565 699.59 541.948 698.206 541.948 696.5Z" fill="#181818"/>
<path opacity="0.2" d="M689.709 667.89V647.83C689.709 646.124 688.326 644.74 686.619 644.74H677.739C676.032 644.74 674.649 646.124 674.649 647.83V667.89C674.649 669.597 676.032 670.98 677.739 670.98H686.619C688.326 670.98 689.709 669.597 689.709 667.89Z" fill="#181818"/>
<path opacity="0.2" d="M689.709 696.5V676.44C689.709 674.733 688.326 673.35 686.619 673.35H677.739C676.032 673.35 674.649 674.733 674.649 676.44V696.5C674.649 698.206 676.032 699.59 677.739 699.59H686.619C688.326 699.59 689.709 698.206 689.709 696.5Z" fill="#181818"/>
<path opacity="0.2" d="M710.528 667.89V647.83C710.528 646.124 709.145 644.74 707.438 644.74H698.558C696.852 644.74 695.468 646.124 695.468 647.83V667.89C695.468 669.597 696.852 670.98 698.558 670.98H707.438C709.145 670.98 710.528 669.597 710.528 667.89Z" fill="#181818"/>
<path opacity="0.2" d="M689.709 639.09V619.03C689.709 617.324 688.326 615.94 686.619 615.94H677.739C676.032 615.94 674.649 617.324 674.649 619.03V639.09C674.649 640.797 676.032 642.18 677.739 642.18H686.619C688.326 642.18 689.709 640.797 689.709 639.09Z" fill="#181818"/>
<path opacity="0.2" d="M710.528 639.09V619.03C710.528 617.324 709.145 615.94 707.438 615.94H698.558C696.852 615.94 695.468 617.324 695.468 619.03V639.09C695.468 640.797 696.852 642.18 698.558 642.18H707.438C709.145 642.18 710.528 640.797 710.528 639.09Z" fill="#181818"/>
<path opacity="0.2" d="M710.528 696.5V676.44C710.528 674.733 709.145 673.35 707.438 673.35H698.558C696.852 673.35 695.468 674.733 695.468 676.44V696.5C695.468 698.206 696.852 699.59 698.558 699.59H707.438C709.145 699.59 710.528 698.206 710.528 696.5Z" fill="#181818"/>
<path opacity="0.2" d="M752.988 686.39V666.33C752.988 664.624 751.605 663.24 749.898 663.24H741.018C739.312 663.24 737.928 664.624 737.928 666.33V686.39C737.928 688.097 739.312 689.48 741.018 689.48H749.898C751.605 689.48 752.988 688.097 752.988 686.39Z" fill="#181818"/>
<path opacity="0.2" d="M773.778 686.39V666.33C773.778 664.624 772.395 663.24 770.688 663.24H761.808C760.102 663.24 758.718 664.624 758.718 666.33V686.39C758.718 688.097 760.102 689.48 761.808 689.48H770.688C772.395 689.48 773.778 688.097 773.778 686.39Z" fill="#181818"/>
<path opacity="0.2" d="M752.988 715V694.94C752.988 693.233 751.605 691.85 749.898 691.85H741.018C739.312 691.85 737.928 693.233 737.928 694.94V715C737.928 716.706 739.312 718.09 741.018 718.09H749.898C751.605 718.09 752.988 716.706 752.988 715Z" fill="#181818"/>
<path opacity="0.2" d="M773.778 715V694.94C773.778 693.233 772.395 691.85 770.688 691.85H761.808C760.102 691.85 758.718 693.233 758.718 694.94V715C758.718 716.706 760.102 718.09 761.808 718.09H770.688C772.395 718.09 773.778 716.706 773.778 715Z" fill="#181818"/>
<path opacity="0.2" d="M752.988 657.59V637.53C752.988 635.824 751.605 634.44 749.898 634.44H741.018C739.312 634.44 737.928 635.824 737.928 637.53V657.59C737.928 659.297 739.312 660.68 741.018 660.68H749.898C751.605 660.68 752.988 659.297 752.988 657.59Z" fill="#181818"/>
<path opacity="0.2" d="M773.778 657.59V637.53C773.778 635.824 772.395 634.44 770.688 634.44H761.808C760.102 634.44 758.718 635.824 758.718 637.53V657.59C758.718 659.297 760.102 660.68 761.808 660.68H770.688C772.395 660.68 773.778 659.297 773.778 657.59Z" fill="#181818"/>
<path opacity="0.2" d="M752.979 628.35V608.29C752.979 606.584 751.595 605.2 749.888 605.2H741.008C739.302 605.2 737.919 606.584 737.919 608.29V628.35C737.919 630.057 739.302 631.44 741.008 631.44H749.888C751.595 631.44 752.979 630.057 752.979 628.35Z" fill="#181818"/>
<path opacity="0.2" d="M773.778 628.36V608.3C773.778 606.593 772.395 605.21 770.688 605.21H761.808C760.102 605.21 758.718 606.593 758.718 608.3V628.36C758.718 630.066 760.102 631.45 761.808 631.45H770.688C772.395 631.45 773.778 630.066 773.778 628.36Z" fill="#181818"/>
<path opacity="0.2" d="M714.948 89.7301V69.6701C714.948 67.9635 713.565 66.5801 711.858 66.5801H702.978C701.272 66.5801 699.888 67.9635 699.888 69.6701V89.7301C699.888 91.4367 701.272 92.8201 702.978 92.8201H711.858C713.565 92.8201 714.948 91.4367 714.948 89.7301Z" fill="#181818"/>
<path opacity="0.2" d="M735.748 89.7203V69.6603C735.748 67.9538 734.365 66.5703 732.658 66.5703H723.778C722.071 66.5703 720.688 67.9538 720.688 69.6603V89.7203C720.688 91.4269 722.071 92.8104 723.778 92.8104H732.658C734.365 92.8104 735.748 91.4269 735.748 89.7203Z" fill="#181818"/>
<path opacity="0.2" d="M714.938 118.34V98.2805C714.938 96.5739 713.555 95.1904 711.848 95.1904H702.968C701.262 95.1904 699.878 96.5739 699.878 98.2805V118.34C699.878 120.047 701.262 121.43 702.968 121.43H711.848C713.555 121.43 714.938 120.047 714.938 118.34Z" fill="#181818"/>
<path opacity="0.2" d="M735.738 118.33V98.2697C735.738 96.5632 734.355 95.1797 732.648 95.1797H723.768C722.062 95.1797 720.678 96.5632 720.678 98.2697V118.33C720.678 120.036 722.062 121.42 723.768 121.42H732.648C734.355 121.42 735.738 120.036 735.738 118.33Z" fill="#181818"/>
<path opacity="0.2" d="M714.948 60.9303V40.8703C714.948 39.1637 713.565 37.7803 711.858 37.7803H702.978C701.272 37.7803 699.888 39.1637 699.888 40.8703V60.9303C699.888 62.6369 701.272 64.0203 702.978 64.0203H711.858C713.565 64.0203 714.948 62.6369 714.948 60.9303Z" fill="#181818"/>
<path opacity="0.2" d="M735.748 60.9196V40.8596C735.748 39.153 734.365 37.7695 732.658 37.7695H723.778C722.071 37.7695 720.688 39.153 720.688 40.8596V60.9196C720.688 62.6261 722.071 64.0096 723.778 64.0096H732.658C734.365 64.0096 735.748 62.6261 735.748 60.9196Z" fill="#181818"/>
<path opacity="0.2" d="M714.948 31.6901V11.6301C714.948 9.92351 713.565 8.54004 711.858 8.54004H702.978C701.272 8.54004 699.888 9.92351 699.888 11.6301V31.6901C699.888 33.3966 701.272 34.78 702.978 34.78H711.858C713.565 34.78 714.948 33.3966 714.948 31.6901Z" fill="#181818"/>
<path opacity="0.2" d="M735.738 31.6803V11.6203C735.738 9.91374 734.355 8.53027 732.648 8.53027H723.768C722.062 8.53027 720.678 9.91374 720.678 11.6203V31.6803C720.678 33.3869 722.062 34.7703 723.768 34.7703H732.648C734.355 34.7703 735.738 33.3869 735.738 31.6803Z" fill="#181818"/>
<path opacity="0.2" d="M599.059 89.7203V69.6603C599.059 67.9538 597.675 66.5703 595.969 66.5703H587.089C585.382 66.5703 583.999 67.9538 583.999 69.6603V89.7203C583.999 91.4269 585.382 92.8104 587.089 92.8104H595.969C597.675 92.8104 599.059 91.4269 599.059 89.7203Z" fill="#181818"/>
<path opacity="0.2" d="M619.849 89.7203V69.6603C619.849 67.9537 618.465 66.5703 616.759 66.5703H607.879C606.172 66.5703 604.789 67.9537 604.789 69.6603V89.7203C604.789 91.4268 606.172 92.8103 607.879 92.8103H616.759C618.465 92.8103 619.849 91.4268 619.849 89.7203Z" fill="#181818"/>
<path opacity="0.2" d="M599.049 118.33V98.2697C599.049 96.5632 597.665 95.1797 595.959 95.1797H587.079C585.372 95.1797 583.989 96.5632 583.989 98.2697V118.33C583.989 120.036 585.372 121.42 587.079 121.42H595.959C597.665 121.42 599.049 120.036 599.049 118.33Z" fill="#181818"/>
<path opacity="0.2" d="M619.839 118.34V98.2804C619.839 96.5738 618.455 95.1904 616.749 95.1904H607.869C606.162 95.1904 604.779 96.5738 604.779 98.2804V118.34C604.779 120.047 606.162 121.43 607.869 121.43H616.749C618.455 121.43 619.839 120.047 619.839 118.34Z" fill="#181818"/>
<path opacity="0.2" d="M599.059 60.9196V40.8596C599.059 39.153 597.675 37.7695 595.969 37.7695H587.089C585.382 37.7695 583.999 39.153 583.999 40.8596V60.9196C583.999 62.6261 585.382 64.0096 587.089 64.0096H595.969C597.675 64.0096 599.059 62.6261 599.059 60.9196Z" fill="#181818"/>
<path opacity="0.2" d="M619.849 60.9195V40.8595C619.849 39.1529 618.465 37.7695 616.759 37.7695H607.879C606.172 37.7695 604.789 39.1529 604.789 40.8595V60.9195C604.789 62.6261 606.172 64.0095 607.879 64.0095H616.759C618.465 64.0095 619.849 62.6261 619.849 60.9195Z" fill="#181818"/>
<path opacity="0.2" d="M599.049 31.6803V11.6203C599.049 9.91374 597.665 8.53027 595.959 8.53027H587.079C585.372 8.53027 583.989 9.91374 583.989 11.6203V31.6803C583.989 33.3869 585.372 34.7703 587.079 34.7703H595.959C597.665 34.7703 599.049 33.3869 599.049 31.6803Z" fill="#181818"/>
<path opacity="0.2" d="M619.849 31.69V11.63C619.849 9.92344 618.465 8.54004 616.759 8.54004H607.879C606.172 8.54004 604.789 9.92344 604.789 11.63V31.69C604.789 33.3966 606.172 34.78 607.879 34.78H616.759C618.465 34.78 619.849 33.3966 619.849 31.69Z" fill="#181818"/>
<path opacity="0.2" d="M351.269 89.7203V69.6603C351.269 67.9537 349.885 66.5703 348.179 66.5703H339.299C337.592 66.5703 336.209 67.9537 336.209 69.6603V89.7203C336.209 91.4269 337.592 92.8103 339.299 92.8103H348.179C349.885 92.8103 351.269 91.4269 351.269 89.7203Z" fill="#181818"/>
<path opacity="0.2" d="M372.059 89.7203V69.6603C372.059 67.9537 370.675 66.5703 368.969 66.5703H360.089C358.382 66.5703 356.999 67.9537 356.999 69.6603V89.7203C356.999 91.4269 358.382 92.8103 360.089 92.8103H368.969C370.675 92.8103 372.059 91.4269 372.059 89.7203Z" fill="#181818"/>
<path opacity="0.2" d="M351.259 118.33V98.2697C351.259 96.5631 349.875 95.1797 348.169 95.1797H339.289C337.582 95.1797 336.199 96.5631 336.199 98.2697V118.33C336.199 120.036 337.582 121.42 339.289 121.42H348.169C349.875 121.42 351.259 120.036 351.259 118.33Z" fill="#181818"/>
<path opacity="0.2" d="M372.059 118.33V98.2697C372.059 96.5631 370.675 95.1797 368.969 95.1797H360.089C358.382 95.1797 356.999 96.5631 356.999 98.2697V118.33C356.999 120.036 358.382 121.42 360.089 121.42H368.969C370.675 121.42 372.059 120.036 372.059 118.33Z" fill="#181818"/>
<path opacity="0.2" d="M351.269 60.9195V40.8595C351.269 39.153 349.885 37.7695 348.179 37.7695H339.299C337.592 37.7695 336.209 39.153 336.209 40.8595V60.9195C336.209 62.6261 337.592 64.0096 339.299 64.0096H348.179C349.885 64.0096 351.269 62.6261 351.269 60.9195Z" fill="#181818"/>
<path opacity="0.2" d="M372.059 60.9195V40.8595C372.059 39.153 370.675 37.7695 368.969 37.7695H360.089C358.382 37.7695 356.999 39.153 356.999 40.8595V60.9195C356.999 62.6261 358.382 64.0095 360.089 64.0095H368.969C370.675 64.0095 372.059 62.6261 372.059 60.9195Z" fill="#181818"/>
<path opacity="0.2" d="M351.259 31.6803V11.6203C351.259 9.91371 349.875 8.53027 348.169 8.53027H339.289C337.582 8.53027 336.199 9.91371 336.199 11.6203V31.6803C336.199 33.3868 337.582 34.7703 339.289 34.7703H348.169C349.875 34.7703 351.259 33.3868 351.259 31.6803Z" fill="#181818"/>
<path opacity="0.2" d="M372.059 31.69V11.63C372.059 9.92348 370.675 8.54004 368.969 8.54004H360.089C358.382 8.54004 356.999 9.92348 356.999 11.63V31.69C356.999 33.3966 358.382 34.78 360.089 34.78H368.969C370.675 34.78 372.059 33.3966 372.059 31.69Z" fill="#181818"/>
<path opacity="0.2" d="M483.158 89.7203V69.6603C483.158 67.9537 481.775 66.5703 480.068 66.5703H471.188C469.482 66.5703 468.098 67.9537 468.098 69.6603V89.7203C468.098 91.4268 469.482 92.8103 471.188 92.8103H480.068C481.775 92.8103 483.158 91.4268 483.158 89.7203Z" fill="#181818"/>
<path opacity="0.2" d="M503.959 89.7203V69.6603C503.959 67.9538 502.576 66.5703 500.869 66.5703H491.989C490.282 66.5703 488.899 67.9538 488.899 69.6603V89.7203C488.899 91.4269 490.282 92.8103 491.989 92.8103H500.869C502.576 92.8103 503.959 91.4269 503.959 89.7203Z" fill="#181818"/>
<path opacity="0.2" d="M483.148 118.34V98.2804C483.148 96.5738 481.765 95.1904 480.058 95.1904H471.178C469.472 95.1904 468.088 96.5738 468.088 98.2804V118.34C468.088 120.047 469.472 121.43 471.178 121.43H480.058C481.765 121.43 483.148 120.047 483.148 118.34Z" fill="#181818"/>
<path opacity="0.2" d="M503.948 118.33V98.2697C503.948 96.5632 502.565 95.1797 500.858 95.1797H491.978C490.272 95.1797 488.888 96.5632 488.888 98.2697V118.33C488.888 120.036 490.272 121.42 491.978 121.42H500.858C502.565 121.42 503.948 120.036 503.948 118.33Z" fill="#181818"/>
<path opacity="0.2" d="M483.148 147.62V127.56C483.148 125.853 481.765 124.47 480.058 124.47H471.178C469.472 124.47 468.088 125.853 468.088 127.56V147.62C468.088 149.326 469.472 150.71 471.178 150.71H480.058C481.765 150.71 483.148 149.326 483.148 147.62Z" fill="#181818"/>
<path opacity="0.2" d="M503.948 147.61V127.55C503.948 125.843 502.565 124.46 500.858 124.46H491.978C490.272 124.46 488.888 125.843 488.888 127.55V147.61C488.888 149.317 490.272 150.7 491.978 150.7H500.858C502.565 150.7 503.948 149.317 503.948 147.61Z" fill="#181818"/>
<path opacity="0.2" d="M483.158 60.9195V40.8595C483.158 39.1529 481.775 37.7695 480.068 37.7695H471.188C469.482 37.7695 468.098 39.1529 468.098 40.8595V60.9195C468.098 62.6261 469.482 64.0095 471.188 64.0095H480.068C481.775 64.0095 483.158 62.6261 483.158 60.9195Z" fill="#181818"/>
<path opacity="0.2" d="M503.959 60.9196V40.8596C503.959 39.153 502.576 37.7695 500.869 37.7695H491.989C490.282 37.7695 488.899 39.153 488.899 40.8596V60.9196C488.899 62.6261 490.282 64.0095 491.989 64.0095H500.869C502.576 64.0095 503.959 62.6261 503.959 60.9196Z" fill="#181818"/>
<path opacity="0.2" d="M483.158 31.69V11.63C483.158 9.92344 481.775 8.54004 480.068 8.54004H471.188C469.482 8.54004 468.098 9.92344 468.098 11.63V31.69C468.098 33.3966 469.482 34.78 471.188 34.78H480.068C481.775 34.78 483.158 33.3966 483.158 31.69Z" fill="#181818"/>
<path opacity="0.2" d="M503.948 31.6803V11.6203C503.948 9.91374 502.565 8.53027 500.858 8.53027H491.978C490.272 8.53027 488.888 9.91374 488.888 11.6203V31.6803C488.888 33.3869 490.272 34.7703 491.978 34.7703H500.858C502.565 34.7703 503.948 33.3869 503.948 31.6803Z" fill="#181818"/>
<path opacity="0.2" d="M891.568 686.39V666.33C891.568 664.624 890.185 663.24 888.478 663.24H879.598C877.892 663.24 876.508 664.624 876.508 666.33V686.39C876.508 688.097 877.892 689.48 879.598 689.48H888.478C890.185 689.48 891.568 688.097 891.568 686.39Z" fill="#181818"/>
<path opacity="0.2" d="M891.568 715V694.94C891.568 693.233 890.185 691.85 888.478 691.85H879.598C877.892 691.85 876.508 693.233 876.508 694.94V715C876.508 716.706 877.892 718.09 879.598 718.09H888.478C890.185 718.09 891.568 716.706 891.568 715Z" fill="#181818"/>
<path opacity="0.2" d="M912.398 686.39V666.33C912.398 664.624 911.015 663.24 909.308 663.24H900.428C898.722 663.24 897.338 664.624 897.338 666.33V686.39C897.338 688.097 898.722 689.48 900.428 689.48H909.308C911.015 689.48 912.398 688.097 912.398 686.39Z" fill="#181818"/>
<path opacity="0.2" d="M891.568 657.59V637.53C891.568 635.824 890.185 634.44 888.478 634.44H879.598C877.892 634.44 876.508 635.824 876.508 637.53V657.59C876.508 659.297 877.892 660.68 879.598 660.68H888.478C890.185 660.68 891.568 659.297 891.568 657.59Z" fill="#181818"/>
<path opacity="0.2" d="M912.398 657.59V637.53C912.398 635.824 911.015 634.44 909.308 634.44H900.428C898.722 634.44 897.338 635.824 897.338 637.53V657.59C897.338 659.297 898.722 660.68 900.428 660.68H909.308C911.015 660.68 912.398 659.297 912.398 657.59Z" fill="#181818"/>
<path opacity="0.2" d="M912.398 715V694.94C912.398 693.233 911.015 691.85 909.308 691.85H900.428C898.722 691.85 897.338 693.233 897.338 694.94V715C897.338 716.706 898.722 718.09 900.428 718.09H909.308C911.015 718.09 912.398 716.706 912.398 715Z" fill="#181818"/>
<path opacity="0.2" d="M604.438 686.39V666.33C604.438 664.624 603.055 663.24 601.349 663.24H592.469C590.762 663.24 589.378 664.624 589.378 666.33V686.39C589.378 688.097 590.762 689.48 592.469 689.48H601.349C603.055 689.48 604.438 688.097 604.438 686.39Z" fill="#181818"/>
<path opacity="0.2" d="M604.448 715V694.94C604.448 693.233 603.065 691.85 601.358 691.85H592.478C590.772 691.85 589.388 693.233 589.388 694.94V715C589.388 716.706 590.772 718.09 592.478 718.09H601.358C603.065 718.09 604.448 716.706 604.448 715Z" fill="#181818"/>
<path opacity="0.2" d="M625.269 686.39V666.33C625.269 664.624 623.885 663.24 622.179 663.24H613.299C611.592 663.24 610.209 664.624 610.209 666.33V686.39C610.209 688.097 611.592 689.48 613.299 689.48H622.179C623.885 689.48 625.269 688.097 625.269 686.39Z" fill="#181818"/>
<path opacity="0.2" d="M604.438 657.59V637.53C604.438 635.824 603.055 634.44 601.348 634.44H592.468C590.762 634.44 589.378 635.824 589.378 637.53V657.59C589.378 659.297 590.762 660.68 592.468 660.68H601.348C603.055 660.68 604.438 659.297 604.438 657.59Z" fill="#181818"/>
<path opacity="0.2" d="M625.269 657.59V637.53C625.269 635.824 623.885 634.44 622.179 634.44H613.299C611.592 634.44 610.209 635.824 610.209 637.53V657.59C610.209 659.297 611.592 660.68 613.299 660.68H622.179C623.885 660.68 625.269 659.297 625.269 657.59Z" fill="#181818"/>
<path opacity="0.2" d="M625.269 715V694.94C625.269 693.233 623.885 691.85 622.179 691.85H613.299C611.592 691.85 610.209 693.233 610.209 694.94V715C610.209 716.706 611.592 718.09 613.299 718.09H622.179C623.885 718.09 625.269 716.706 625.269 715Z" fill="#181818"/>
<path opacity="0.2" d="M367.269 686.39V666.33C367.269 664.624 365.885 663.24 364.179 663.24H355.299C353.592 663.24 352.209 664.624 352.209 666.33V686.39C352.209 688.097 353.592 689.48 355.299 689.48H364.179C365.885 689.48 367.269 688.097 367.269 686.39Z" fill="#181818"/>
<path opacity="0.2" d="M367.269 715V694.94C367.269 693.233 365.885 691.85 364.179 691.85H355.299C353.592 691.85 352.209 693.233 352.209 694.94V715C352.209 716.706 353.592 718.09 355.299 718.09H364.179C365.885 718.09 367.269 716.706 367.269 715Z" fill="#181818"/>
<path opacity="0.2" d="M388.089 715.01V694.95C388.089 693.244 386.705 691.86 384.999 691.86H376.119C374.412 691.86 373.029 693.244 373.029 694.95V715.01C373.029 716.717 374.412 718.1 376.119 718.1H384.999C386.705 718.1 388.089 716.717 388.089 715.01Z" fill="#181818"/>
<path opacity="0.2" d="M457.618 686.4V666.34C457.618 664.633 456.235 663.25 454.528 663.25H445.648C443.942 663.25 442.558 664.633 442.558 666.34V686.4C442.558 688.107 443.942 689.49 445.648 689.49H454.528C456.235 689.49 457.618 688.107 457.618 686.4Z" fill="#181818"/>
<path opacity="0.2" d="M457.618 715.01V694.95C457.618 693.244 456.235 691.86 454.528 691.86H445.648C443.942 691.86 442.558 693.244 442.558 694.95V715.01C442.558 716.717 443.942 718.1 445.648 718.1H454.528C456.235 718.1 457.618 716.717 457.618 715.01Z" fill="#181818"/>
<path opacity="0.2" d="M478.438 686.39V666.33C478.438 664.624 477.055 663.24 475.349 663.24H466.469C464.762 663.24 463.378 664.624 463.378 666.33V686.39C463.378 688.097 464.762 689.48 466.469 689.48H475.349C477.055 689.48 478.438 688.097 478.438 686.39Z" fill="#181818"/>
<path opacity="0.2" d="M457.618 657.6V637.54C457.618 635.834 456.235 634.45 454.528 634.45H445.648C443.942 634.45 442.558 635.834 442.558 637.54V657.6C442.558 659.307 443.942 660.69 445.648 660.69H454.528C456.235 660.69 457.618 659.307 457.618 657.6Z" fill="#181818"/>
<path opacity="0.2" d="M478.438 657.59V637.53C478.438 635.824 477.055 634.44 475.348 634.44H466.468C464.762 634.44 463.378 635.824 463.378 637.53V657.59C463.378 659.297 464.762 660.68 466.468 660.68H475.348C477.055 660.68 478.438 659.297 478.438 657.59Z" fill="#181818"/>
<path opacity="0.2" d="M467.528 628.73V608.67C467.528 606.964 466.145 605.58 464.438 605.58H455.558C453.852 605.58 452.468 606.964 452.468 608.67V628.73C452.468 630.437 453.852 631.82 455.558 631.82H464.438C466.145 631.82 467.528 630.437 467.528 628.73Z" fill="#181818"/>
<path opacity="0.2" d="M478.448 715V694.94C478.448 693.233 477.065 691.85 475.358 691.85H466.478C464.772 691.85 463.388 693.233 463.388 694.94V715C463.388 716.706 464.772 718.09 466.478 718.09H475.358C477.065 718.09 478.448 716.706 478.448 715Z" fill="#181818"/>
<path opacity="0.2" d="M1061.41 31.6901V11.6301C1061.41 9.92357 1060.02 8.54004 1058.32 8.54004H1049.44C1047.73 8.54004 1046.35 9.92357 1046.35 11.6301V31.6901C1046.35 33.3966 1047.73 34.78 1049.44 34.78H1058.32C1060.02 34.78 1061.41 33.3966 1061.41 31.6901Z" fill="#181818"/>
<path opacity="0.2" d="M1082.2 31.6901V11.63C1082.2 9.92344 1080.81 8.54004 1079.11 8.54004H1070.23C1068.52 8.54004 1067.14 9.92344 1067.14 11.63V31.6901C1067.14 33.3966 1068.52 34.78 1070.23 34.78H1079.11C1080.81 34.78 1082.2 33.3966 1082.2 31.6901Z" fill="#181818"/>
<path opacity="0.2" d="M1103.02 31.6901V11.6301C1103.02 9.92357 1101.64 8.54004 1099.93 8.54004H1091.05C1089.34 8.54004 1087.96 9.92357 1087.96 11.6301V31.6901C1087.96 33.3966 1089.34 34.78 1091.05 34.78H1099.93C1101.64 34.78 1103.02 33.3966 1103.02 31.6901Z" fill="#181818"/>
<path opacity="0.2" d="M1116.99 165.57V145.51C1116.99 143.803 1115.6 142.42 1113.9 142.42H1105.02C1103.31 142.42 1101.93 143.803 1101.93 145.51V165.57C1101.93 167.277 1103.31 168.66 1105.02 168.66H1113.9C1115.6 168.66 1116.99 167.277 1116.99 165.57Z" fill="#181818"/>
<path opacity="0.2" d="M1137.78 165.57V145.51C1137.78 143.803 1136.39 142.42 1134.69 142.42H1125.81C1124.1 142.42 1122.72 143.803 1122.72 145.51V165.57C1122.72 167.277 1124.1 168.66 1125.81 168.66H1134.69C1136.39 168.66 1137.78 167.277 1137.78 165.57Z" fill="#181818"/>
<path opacity="0.2" d="M1116.99 194.19V174.13C1116.99 172.423 1115.6 171.04 1113.9 171.04H1105.02C1103.31 171.04 1101.93 172.423 1101.93 174.13V194.19C1101.93 195.897 1103.31 197.28 1105.02 197.28H1113.9C1115.6 197.28 1116.99 195.897 1116.99 194.19Z" fill="#181818"/>
<path opacity="0.2" d="M1095.68 165.57V145.51C1095.68 143.803 1094.3 142.42 1092.59 142.42H1083.71C1082 142.42 1080.62 143.803 1080.62 145.51V165.57C1080.62 167.277 1082 168.66 1083.71 168.66H1092.59C1094.3 168.66 1095.68 167.277 1095.68 165.57Z" fill="#181818"/>
<path opacity="0.2" d="M1095.68 194.18V174.12C1095.68 172.414 1094.3 171.03 1092.59 171.03H1083.71C1082 171.03 1080.62 172.414 1080.62 174.12V194.18C1080.62 195.887 1082 197.27 1083.71 197.27H1092.59C1094.3 197.27 1095.68 195.887 1095.68 194.18Z" fill="#181818"/>
<path opacity="0.2" d="M1137.78 194.18V174.12C1137.78 172.414 1136.39 171.03 1134.69 171.03H1125.81C1124.1 171.03 1122.72 172.414 1122.72 174.12V194.18C1122.72 195.887 1124.1 197.27 1125.81 197.27H1134.69C1136.39 197.27 1137.78 195.887 1137.78 194.18Z" fill="#181818"/>
<path opacity="0.2" d="M1158.61 165.58V145.52C1158.61 143.813 1157.22 142.43 1155.52 142.43H1146.64C1144.93 142.43 1143.55 143.813 1143.55 145.52V165.58C1143.55 167.286 1144.93 168.67 1146.64 168.67H1155.52C1157.22 168.67 1158.61 167.286 1158.61 165.58Z" fill="#181818"/>
<path opacity="0.2" d="M1158.61 194.19V174.13C1158.61 172.423 1157.22 171.04 1155.52 171.04H1146.64C1144.93 171.04 1143.55 172.423 1143.55 174.13V194.19C1143.55 195.897 1144.93 197.28 1146.64 197.28H1155.52C1157.22 197.28 1158.61 195.897 1158.61 194.19Z" fill="#181818"/>
<path opacity="0.2" d="M171.379 227.23V207.17C171.379 205.464 169.995 204.08 168.289 204.08H159.409C157.702 204.08 156.319 205.464 156.319 207.17V227.23C156.319 228.937 157.702 230.32 159.409 230.32H168.289C169.995 230.32 171.379 228.937 171.379 227.23Z" fill="#181818"/>
<path opacity="0.2" d="M192.169 227.22V207.16C192.169 205.454 190.785 204.07 189.079 204.07H180.199C178.492 204.07 177.109 205.454 177.109 207.16V227.22C177.109 228.927 178.492 230.31 180.199 230.31H189.079C190.785 230.31 192.169 228.927 192.169 227.22Z" fill="#181818"/>
<path opacity="0.2" d="M171.379 255.84V235.78C171.379 234.074 169.995 232.69 168.289 232.69H159.409C157.702 232.69 156.319 234.074 156.319 235.78V255.84C156.319 257.547 157.702 258.93 159.409 258.93H168.289C169.995 258.93 171.379 257.547 171.379 255.84Z" fill="#181818"/>
<path opacity="0.2" d="M150.068 227.22V207.16C150.068 205.454 148.685 204.07 146.978 204.07H138.098C136.392 204.07 135.008 205.454 135.008 207.16V227.22C135.008 228.927 136.392 230.31 138.098 230.31H146.978C148.685 230.31 150.068 228.927 150.068 227.22Z" fill="#181818"/>
<path opacity="0.2" d="M150.068 255.83V235.77C150.068 234.063 148.685 232.68 146.978 232.68H138.098C136.392 232.68 135.008 234.063 135.008 235.77V255.83C135.008 257.536 136.392 258.92 138.098 258.92H146.978C148.685 258.92 150.068 257.536 150.068 255.83Z" fill="#181818"/>
<path opacity="0.2" d="M192.179 255.83V235.77C192.179 234.063 190.795 232.68 189.089 232.68H180.209C178.502 232.68 177.119 234.063 177.119 235.77V255.83C177.119 257.536 178.502 258.92 180.209 258.92H189.089C190.795 258.92 192.179 257.536 192.179 255.83Z" fill="#181818"/>
<path opacity="0.2" d="M212.998 227.23V207.17C212.998 205.464 211.615 204.08 209.908 204.08H201.028C199.321 204.08 197.938 205.464 197.938 207.17V227.23C197.938 228.937 199.321 230.32 201.028 230.32H209.908C211.615 230.32 212.998 228.937 212.998 227.23Z" fill="#181818"/>
<path opacity="0.2" d="M212.998 255.84V235.78C212.998 234.074 211.615 232.69 209.908 232.69H201.028C199.321 232.69 197.938 234.074 197.938 235.78V255.84C197.938 257.547 199.321 258.93 201.028 258.93H209.908C211.615 258.93 212.998 257.547 212.998 255.84Z" fill="#181818"/>
<path opacity="0.2" d="M142.408 193.26V173.2C142.408 171.494 141.025 170.11 139.318 170.11H130.438C128.732 170.11 127.348 171.494 127.348 173.2V193.26C127.348 194.967 128.732 196.35 130.438 196.35H139.318C141.025 196.35 142.408 194.967 142.408 193.26Z" fill="#181818"/>
<path opacity="0.2" d="M163.198 179.79V159.73C163.198 158.023 161.815 156.64 160.108 156.64H151.228C149.522 156.64 148.138 158.023 148.138 159.73V179.79C148.138 181.496 149.522 182.88 151.228 182.88H160.108C161.815 182.88 163.198 181.496 163.198 179.79Z" fill="#181818"/>
<path opacity="0.2" d="M121.099 207.8V187.74C121.099 186.034 119.715 184.65 118.009 184.65H109.129C107.422 184.65 106.039 186.034 106.039 187.74V207.8C106.039 209.507 107.422 210.89 109.129 210.89H118.009C119.715 210.89 121.099 209.507 121.099 207.8Z" fill="#181818"/>
<path opacity="0.2" d="M184.019 167.41V147.35C184.019 145.643 182.635 144.26 180.929 144.26H172.049C170.342 144.26 168.959 145.643 168.959 147.35V167.41C168.959 169.116 170.342 170.5 172.049 170.5H180.929C182.635 170.5 184.019 169.116 184.019 167.41Z" fill="#181818"/>
<path opacity="0.2" d="M206.538 303.06V283C206.538 281.294 205.155 279.91 203.448 279.91H194.568C192.862 279.91 191.478 281.294 191.478 283V303.06C191.478 304.767 192.862 306.15 194.568 306.15H203.448C205.155 306.15 206.538 304.767 206.538 303.06Z" fill="#181818"/>
<path opacity="0.2" d="M182.839 331.06V311C182.839 309.294 181.455 307.91 179.749 307.91H170.869C169.162 307.91 167.779 309.294 167.779 311V331.06C167.779 332.767 169.162 334.15 170.869 334.15H179.749C181.455 334.15 182.839 332.767 182.839 331.06Z" fill="#181818"/>
<path opacity="0.2" d="M227.358 303.06V283C227.358 281.294 225.975 279.91 224.268 279.91H215.388C213.682 279.91 212.298 281.294 212.298 283V303.06C212.298 304.767 213.682 306.15 215.388 306.15H224.268C225.975 306.15 227.358 304.767 227.358 303.06Z" fill="#181818"/>
<path opacity="0.2" d="M336.099 588.5V568.44C336.099 566.733 334.715 565.35 333.009 565.35H324.129C322.422 565.35 321.039 566.733 321.039 568.44V588.5C321.039 590.206 322.422 591.59 324.129 591.59H333.009C334.715 591.59 336.099 590.206 336.099 588.5Z" fill="#181818"/>
<path opacity="0.2" d="M356.898 575.03V554.97C356.898 553.263 355.515 551.88 353.808 551.88H344.928C343.222 551.88 341.838 553.263 341.838 554.97V575.03C341.838 576.736 343.222 578.12 344.928 578.12H353.808C355.515 578.12 356.898 576.736 356.898 575.03Z" fill="#181818"/>
<path opacity="0.2" d="M314.799 603.04V582.98C314.799 581.273 313.415 579.89 311.709 579.89H302.829C301.122 579.89 299.739 581.273 299.739 582.98V603.04C299.739 604.746 301.122 606.13 302.829 606.13H311.709C313.415 606.13 314.799 604.746 314.799 603.04Z" fill="#181818"/>
<path opacity="0.2" d="M377.719 562.64V542.58C377.719 540.874 376.335 539.49 374.629 539.49H365.749C364.042 539.49 362.659 540.874 362.659 542.58V562.64C362.659 564.347 364.042 565.73 365.749 565.73H374.629C376.335 565.73 377.719 564.347 377.719 562.64Z" fill="#181818"/>
<path opacity="0.2" d="M1088.32 543.49V523.43C1088.32 521.723 1086.93 520.34 1085.23 520.34H1076.35C1074.64 520.34 1073.26 521.723 1073.26 523.43V543.49C1073.26 545.196 1074.64 546.58 1076.35 546.58H1085.23C1086.93 546.58 1088.32 545.196 1088.32 543.49Z" fill="#181818"/>
<path opacity="0.2" d="M1037.73 470.27V450.21C1037.73 448.504 1036.35 447.12 1034.64 447.12H1025.76C1024.05 447.12 1022.67 448.504 1022.67 450.21V470.27C1022.67 471.977 1024.05 473.36 1025.76 473.36H1034.64C1036.35 473.36 1037.73 471.977 1037.73 470.27Z" fill="#181818"/>
<path opacity="0.2" d="M1058.52 470.26V450.2C1058.52 448.494 1057.14 447.11 1055.43 447.11H1046.55C1044.84 447.11 1043.46 448.494 1043.46 450.2V470.26C1043.46 471.967 1044.84 473.35 1046.55 473.35H1055.43C1057.14 473.35 1058.52 471.967 1058.52 470.26Z" fill="#181818"/>
<path opacity="0.2" d="M1037.73 498.88V478.82C1037.73 477.114 1036.35 475.73 1034.64 475.73H1025.76C1024.05 475.73 1022.67 477.114 1022.67 478.82V498.88C1022.67 500.587 1024.05 501.97 1025.76 501.97H1034.64C1036.35 501.97 1037.73 500.587 1037.73 498.88Z" fill="#181818"/>
<path opacity="0.2" d="M1058.53 498.87V478.81C1058.53 477.103 1057.14 475.72 1055.44 475.72H1046.56C1044.85 475.72 1043.47 477.103 1043.47 478.81V498.87C1043.47 500.576 1044.85 501.96 1046.56 501.96H1055.44C1057.14 501.96 1058.53 500.576 1058.53 498.87Z" fill="#181818"/>
<path opacity="0.2" d="M1079.35 470.27V450.21C1079.35 448.504 1077.97 447.12 1076.26 447.12H1067.38C1065.67 447.12 1064.29 448.504 1064.29 450.21V470.27C1064.29 471.977 1065.67 473.36 1067.38 473.36H1076.26C1077.97 473.36 1079.35 471.977 1079.35 470.27Z" fill="#181818"/>
<path opacity="0.2" d="M1079.35 498.88V478.82C1079.35 477.114 1077.97 475.73 1076.26 475.73H1067.38C1065.67 475.73 1064.29 477.114 1064.29 478.82V498.88C1064.29 500.587 1065.67 501.97 1067.38 501.97H1076.26C1077.97 501.97 1079.35 500.587 1079.35 498.88Z" fill="#181818"/>
<path opacity="0.2" d="M1099.8 470.26V450.2C1099.8 448.494 1098.42 447.11 1096.71 447.11H1087.83C1086.12 447.11 1084.74 448.494 1084.74 450.2V470.26C1084.74 471.967 1086.12 473.35 1087.83 473.35H1096.71C1098.42 473.35 1099.8 471.967 1099.8 470.26Z" fill="#181818"/>
<path opacity="0.2" d="M1099.8 498.87V478.81C1099.8 477.103 1098.42 475.72 1096.71 475.72H1087.83C1086.12 475.72 1084.74 477.103 1084.74 478.81V498.87C1084.74 500.576 1086.12 501.96 1087.83 501.96H1096.71C1098.42 501.96 1099.8 500.576 1099.8 498.87Z" fill="#181818"/>
<path opacity="0.2" d="M281.549 500.88V480.82C281.549 479.114 280.165 477.73 278.459 477.73H269.579C267.872 477.73 266.489 479.114 266.489 480.82V500.88C266.489 502.587 267.872 503.97 269.579 503.97H278.459C280.165 503.97 281.549 502.587 281.549 500.88Z" fill="#181818"/>
<path opacity="0.2" d="M302.339 500.87V480.81C302.339 479.103 300.955 477.72 299.249 477.72H290.369C288.662 477.72 287.279 479.103 287.279 480.81V500.87C287.279 502.576 288.662 503.96 290.369 503.96H299.249C300.955 503.96 302.339 502.576 302.339 500.87Z" fill="#181818"/>
<path opacity="0.2" d="M281.549 529.49V509.43C281.549 507.723 280.165 506.34 278.459 506.34H269.579C267.872 506.34 266.489 507.723 266.489 509.43V529.49C266.489 531.196 267.872 532.58 269.579 532.58H278.459C280.165 532.58 281.549 531.196 281.549 529.49Z" fill="#181818"/>
<path opacity="0.2" d="M302.339 529.48V509.42C302.339 507.714 300.955 506.33 299.249 506.33H290.369C288.662 506.33 287.279 507.714 287.279 509.42V529.48C287.279 531.187 288.662 532.57 290.369 532.57H299.249C300.955 532.57 302.339 531.187 302.339 529.48Z" fill="#181818"/>
<path opacity="0.2" d="M323.158 500.88V480.82C323.158 479.114 321.775 477.73 320.068 477.73H311.188C309.482 477.73 308.098 479.114 308.098 480.82V500.88C308.098 502.587 309.482 503.97 311.188 503.97H320.068C321.775 503.97 323.158 502.587 323.158 500.88Z" fill="#181818"/>
<path opacity="0.2" d="M323.169 529.49V509.43C323.169 507.723 321.785 506.34 320.079 506.34H311.199C309.492 506.34 308.109 507.723 308.109 509.43V529.49C308.109 531.196 309.492 532.58 311.199 532.58H320.079C321.785 532.58 323.169 531.196 323.169 529.49Z" fill="#181818"/>
<path opacity="0.2" d="M343.608 500.87V480.81C343.608 479.103 342.225 477.72 340.518 477.72H331.638C329.932 477.72 328.548 479.103 328.548 480.81V500.87C328.548 502.576 329.932 503.96 331.638 503.96H340.518C342.225 503.96 343.608 502.576 343.608 500.87Z" fill="#181818"/>
<path opacity="0.2" d="M343.608 529.48V509.42C343.608 507.714 342.225 506.33 340.518 506.33H331.638C329.932 506.33 328.548 507.714 328.548 509.42V529.48C328.548 531.187 329.932 532.57 331.638 532.57H340.518C342.225 532.57 343.608 531.187 343.608 529.48Z" fill="#181818"/>
<path opacity="0.2" d="M302.429 404.49V384.43C302.429 382.723 301.045 381.34 299.339 381.34H290.459C288.752 381.34 287.369 382.723 287.369 384.43V404.49C287.369 406.196 288.752 407.58 290.459 407.58H299.339C301.045 407.58 302.429 406.196 302.429 404.49Z" fill="#181818"/>
<path opacity="0.2" d="M302.429 433.1V413.04C302.429 411.334 301.045 409.95 299.339 409.95H290.459C288.752 409.95 287.369 411.334 287.369 413.04V433.1C287.369 434.807 288.752 436.19 290.459 436.19H299.339C301.045 436.19 302.429 434.807 302.429 433.1Z" fill="#181818"/>
<path opacity="0.2" d="M270.009 433.1V413.04C270.009 411.334 268.625 409.95 266.919 409.95H258.039C256.332 409.95 254.949 411.334 254.949 413.04V433.1C254.949 434.807 256.332 436.19 258.039 436.19H266.919C268.625 436.19 270.009 434.807 270.009 433.1Z" fill="#181818"/>
<path opacity="0.2" d="M286.158 460.04V439.98C286.158 438.273 284.775 436.89 283.068 436.89H274.188C272.482 436.89 271.098 438.273 271.098 439.98V460.04C271.098 461.746 272.482 463.13 274.188 463.13H283.068C284.775 463.13 286.158 461.746 286.158 460.04Z" fill="#181818"/>
<path opacity="0.2" d="M322.879 404.49V384.43C322.879 382.723 321.495 381.34 319.789 381.34H310.909C309.202 381.34 307.819 382.723 307.819 384.43V404.49C307.819 406.196 309.202 407.58 310.909 407.58H319.789C321.495 407.58 322.879 406.196 322.879 404.49Z" fill="#181818"/>
<path opacity="0.2" d="M322.879 433.11V413.05C322.879 411.343 321.495 409.96 319.789 409.96H310.909C309.202 409.96 307.819 411.343 307.819 413.05V433.11C307.819 434.817 309.202 436.2 310.909 436.2H319.789C321.495 436.2 322.879 434.817 322.879 433.11Z" fill="#181818"/>
<path opacity="0.2" d="M210.179 364.64V344.58C210.179 342.874 208.795 341.49 207.089 341.49H198.209C196.502 341.49 195.119 342.874 195.119 344.58V364.64C195.119 366.347 196.502 367.73 198.209 367.73H207.089C208.795 367.73 210.179 366.347 210.179 364.64Z" fill="#181818"/>
<path opacity="0.2" d="M230.979 364.64V344.58C230.979 342.874 229.595 341.49 227.889 341.49H219.009C217.302 341.49 215.919 342.874 215.919 344.58V364.64C215.919 366.347 217.302 367.73 219.009 367.73H227.889C229.595 367.73 230.979 366.347 230.979 364.64Z" fill="#181818"/>
<path opacity="0.2" d="M210.179 393.25V373.19C210.179 371.483 208.795 370.1 207.089 370.1H198.209C196.502 370.1 195.119 371.483 195.119 373.19V393.25C195.119 394.956 196.502 396.34 198.209 396.34H207.089C208.795 396.34 210.179 394.956 210.179 393.25Z" fill="#181818"/>
<path opacity="0.2" d="M230.979 393.25V373.19C230.979 371.483 229.595 370.1 227.889 370.1H219.009C217.302 370.1 215.919 371.483 215.919 373.19V393.25C215.919 394.956 217.302 396.34 219.009 396.34H227.889C229.595 396.34 230.979 394.956 230.979 393.25Z" fill="#181818"/>
<path opacity="0.2" d="M251.799 364.63V344.57C251.799 342.864 250.415 341.48 248.709 341.48H239.829C238.122 341.48 236.739 342.864 236.739 344.57V364.63C236.739 366.337 238.122 367.72 239.829 367.72H248.709C250.415 367.72 251.799 366.337 251.799 364.63Z" fill="#181818"/>
<path opacity="0.2" d="M251.799 393.24V373.18C251.799 371.473 250.415 370.09 248.709 370.09H239.829C238.122 370.09 236.739 371.473 236.739 373.18V393.24C236.739 394.946 238.122 396.33 239.829 396.33H248.709C250.415 396.33 251.799 394.946 251.799 393.24Z" fill="#181818"/>
<path opacity="0.2" d="M272.248 364.64V344.58C272.248 342.874 270.865 341.49 269.158 341.49H260.278C258.571 341.49 257.188 342.874 257.188 344.58V364.64C257.188 366.347 258.571 367.73 260.278 367.73H269.158C270.865 367.73 272.248 366.347 272.248 364.64Z" fill="#181818"/>
<path opacity="0.2" d="M272.248 393.25V373.19C272.248 371.483 270.865 370.1 269.158 370.1H260.278C258.571 370.1 257.188 371.483 257.188 373.19V393.25C257.188 394.956 258.571 396.34 260.278 396.34H269.158C270.865 396.34 272.248 394.956 272.248 393.25Z" fill="#181818"/>
<path opacity="0.2" d="M1023.15 588.96V568.9C1023.15 567.193 1021.77 565.81 1020.06 565.81H1011.18C1009.47 565.81 1008.09 567.193 1008.09 568.9V588.96C1008.09 590.666 1009.47 592.05 1011.18 592.05H1020.06C1021.77 592.05 1023.15 590.666 1023.15 588.96Z" fill="#181818"/>
<path opacity="0.2" d="M1010.83 617.56V597.5C1010.83 595.794 1009.44 594.41 1007.74 594.41H998.858C997.152 594.41 995.768 595.794 995.768 597.5V617.56C995.768 619.267 997.152 620.65 998.858 620.65H1007.74C1009.44 620.65 1010.83 619.267 1010.83 617.56Z" fill="#181818"/>
<path opacity="0.2" d="M1031.63 617.57V597.51C1031.63 595.803 1030.25 594.42 1028.54 594.42H1019.66C1017.95 594.42 1016.57 595.803 1016.57 597.51V617.57C1016.57 619.276 1017.95 620.66 1019.66 620.66H1028.54C1030.25 620.66 1031.63 619.276 1031.63 617.57Z" fill="#181818"/>
<path opacity="0.2" d="M1043.98 588.95V568.89C1043.98 567.183 1042.6 565.8 1040.89 565.8H1032.01C1030.3 565.8 1028.92 567.183 1028.92 568.89V588.95C1028.92 590.656 1030.3 592.04 1032.01 592.04H1040.89C1042.6 592.04 1043.98 590.656 1043.98 588.95Z" fill="#181818"/>
<path opacity="0.2" d="M1052.45 617.57V597.51C1052.45 595.803 1051.06 594.42 1049.36 594.42H1040.48C1038.77 594.42 1037.39 595.803 1037.39 597.51V617.57C1037.39 619.277 1038.77 620.66 1040.48 620.66H1049.36C1051.06 620.66 1052.45 619.277 1052.45 617.57Z" fill="#181818"/>
<path opacity="0.2" d="M1064.42 588.96V568.9C1064.42 567.193 1063.03 565.81 1061.33 565.81H1052.45C1050.74 565.81 1049.36 567.193 1049.36 568.9V588.96C1049.36 590.666 1050.74 592.05 1052.45 592.05H1061.33C1063.03 592.05 1064.42 590.666 1064.42 588.96Z" fill="#181818"/>
<path opacity="0.2" d="M1072.9 617.57V597.51C1072.9 595.803 1071.52 594.42 1069.81 594.42H1060.93C1059.22 594.42 1057.84 595.803 1057.84 597.51V617.57C1057.84 619.277 1059.22 620.66 1060.93 620.66H1069.81C1071.52 620.66 1072.9 619.277 1072.9 617.57Z" fill="#181818"/>
<path opacity="0.2" d="M1065.12 389.77V369.71C1065.12 368.004 1063.73 366.62 1062.03 366.62H1053.15C1051.44 366.62 1050.06 368.004 1050.06 369.71V389.77C1050.06 391.477 1051.44 392.86 1053.15 392.86H1062.03C1063.73 392.86 1065.12 391.477 1065.12 389.77Z" fill="#181818"/>
<path opacity="0.2" d="M1085.94 389.77V369.71C1085.94 368.004 1084.56 366.62 1082.85 366.62H1073.97C1072.26 366.62 1070.88 368.004 1070.88 369.71V389.77C1070.88 391.477 1072.26 392.86 1073.97 392.86H1082.85C1084.56 392.86 1085.94 391.477 1085.94 389.77Z" fill="#181818"/>
<path opacity="0.2" d="M1106.39 389.77V369.71C1106.39 368.004 1105.01 366.62 1103.3 366.62H1094.42C1092.71 366.62 1091.33 368.004 1091.33 369.71V389.77C1091.33 391.477 1092.71 392.86 1094.42 392.86H1103.3C1105.01 392.86 1106.39 391.477 1106.39 389.77Z" fill="#181818"/>
<path opacity="0.2" d="M1071.9 419.13V399.07C1071.9 397.363 1070.52 395.979 1068.81 395.979H1059.93C1058.22 395.979 1056.84 397.363 1056.84 399.07V419.13C1056.84 420.836 1058.22 422.22 1059.93 422.22H1068.81C1070.52 422.22 1071.9 420.836 1071.9 419.13Z" fill="#181818"/>
<path opacity="0.2" d="M1092.73 419.13V399.07C1092.73 397.364 1091.35 395.98 1089.64 395.98H1080.76C1079.05 395.98 1077.67 397.364 1077.67 399.07V419.13C1077.67 420.837 1079.05 422.22 1080.76 422.22H1089.64C1091.35 422.22 1092.73 420.837 1092.73 419.13Z" fill="#181818"/>
<path opacity="0.2" d="M1113.17 419.13V399.071C1113.17 397.364 1111.78 395.98 1110.08 395.98H1101.2C1099.49 395.98 1098.11 397.364 1098.11 399.071V419.13C1098.11 420.837 1099.49 422.22 1101.2 422.22H1110.08C1111.78 422.22 1113.17 420.837 1113.17 419.13Z" fill="#181818"/>
<path opacity="0.2" d="M1092.97 241.67V221.609C1092.97 219.903 1091.59 218.52 1089.88 218.52H1081C1079.29 218.52 1077.91 219.903 1077.91 221.609V241.67C1077.91 243.376 1079.29 244.76 1081 244.76H1089.88C1091.59 244.76 1092.97 243.376 1092.97 241.67Z" fill="#181818"/>
<path opacity="0.2" d="M1113.79 241.66V221.6C1113.79 219.893 1112.4 218.51 1110.7 218.51H1101.82C1100.11 218.51 1098.73 219.893 1098.73 221.6V241.66C1098.73 243.366 1100.11 244.75 1101.82 244.75H1110.7C1112.4 244.75 1113.79 243.366 1113.79 241.66Z" fill="#181818"/>
<path opacity="0.2" d="M1134.24 241.671V221.61C1134.24 219.904 1132.85 218.521 1131.15 218.521H1122.27C1120.56 218.521 1119.18 219.904 1119.18 221.61V241.671C1119.18 243.377 1120.56 244.76 1122.27 244.76H1131.15C1132.85 244.76 1134.24 243.377 1134.24 241.671Z" fill="#181818"/>
<path opacity="0.2" d="M1099.74 271.02V250.96C1099.74 249.254 1098.35 247.87 1096.65 247.87H1087.77C1086.06 247.87 1084.68 249.254 1084.68 250.96V271.02C1084.68 272.727 1086.06 274.11 1087.77 274.11H1096.65C1098.35 274.11 1099.74 272.727 1099.74 271.02Z" fill="#181818"/>
<path opacity="0.2" d="M1120.56 271.03V250.97C1120.56 249.263 1119.18 247.88 1117.47 247.88H1108.59C1106.88 247.88 1105.5 249.263 1105.5 250.97V271.03C1105.5 272.736 1106.88 274.12 1108.59 274.12H1117.47C1119.18 274.12 1120.56 272.736 1120.56 271.03Z" fill="#181818"/>
<path opacity="0.2" d="M1141.01 271.02V250.96C1141.01 249.254 1139.63 247.87 1137.92 247.87H1129.04C1127.33 247.87 1125.95 249.254 1125.95 250.96V271.02C1125.95 272.727 1127.33 274.11 1129.04 274.11H1137.92C1139.63 274.11 1141.01 272.727 1141.01 271.02Z" fill="#181818"/>
<path opacity="0.2" d="M829.389 568.64V548.58C829.389 546.874 828.005 545.49 826.299 545.49H817.419C815.712 545.49 814.329 546.874 814.329 548.58V568.64C814.329 570.347 815.712 571.73 817.419 571.73H826.299C828.005 571.73 829.389 570.347 829.389 568.64Z" fill="#181818"/>
<path opacity="0.2" d="M901.669 568.64V548.58C901.669 546.874 900.286 545.49 898.579 545.49H889.699C887.992 545.49 886.609 546.874 886.609 548.58V568.64C886.609 570.347 887.992 571.73 889.699 571.73H898.579C900.286 571.73 901.669 570.347 901.669 568.64Z" fill="#181818"/>
<path opacity="0.2" d="M903.078 524.1V504.04C903.078 502.334 901.695 500.95 899.988 500.95H891.108C889.402 500.95 888.018 502.334 888.018 504.04V524.1C888.018 525.807 889.402 527.19 891.108 527.19H899.988C901.695 527.19 903.078 525.807 903.078 524.1Z" fill="#181818"/>
<path opacity="0.2" d="M882.248 524.1V504.04C882.248 502.334 880.865 500.95 879.158 500.95H870.278C868.571 500.95 867.188 502.334 867.188 504.04V524.1C867.188 525.807 868.571 527.19 870.278 527.19H879.158C880.865 527.19 882.248 525.807 882.248 524.1Z" fill="#181818"/>
<path opacity="0.2" d="M418.209 111.33V91.2697C418.209 89.5631 416.826 88.1797 415.119 88.1797H406.239C404.532 88.1797 403.149 89.5631 403.149 91.2697V111.33C403.149 113.036 404.532 114.42 406.239 114.42H415.119C416.826 114.42 418.209 113.036 418.209 111.33Z" fill="#181818"/>
<path opacity="0.2" d="M438.998 111.34V91.2804C438.998 89.5739 437.615 88.1904 435.908 88.1904H427.028C425.321 88.1904 423.938 89.5739 423.938 91.2804V111.34C423.938 113.047 425.321 114.43 427.028 114.43H435.908C437.615 114.43 438.998 113.047 438.998 111.34Z" fill="#181818"/>
<path opacity="0.2" d="M551.498 111.33V91.2697C551.498 89.5632 550.115 88.1797 548.408 88.1797H539.528C537.821 88.1797 536.438 89.5632 536.438 91.2697V111.33C536.438 113.036 537.821 114.42 539.528 114.42H548.408C550.115 114.42 551.498 113.036 551.498 111.33Z" fill="#181818"/>
<g opacity="0.5">
<path opacity="0.5" d="M309.578 256.65L388.928 432.12C389.731 433.905 391.031 435.421 392.674 436.485C394.316 437.55 396.231 438.117 398.188 438.12H521.538C522.873 438.12 524.195 437.857 525.428 437.346C526.662 436.835 527.782 436.086 528.726 435.141C529.669 434.197 530.418 433.075 530.928 431.841C531.438 430.608 531.699 429.285 531.698 427.95V232.53C531.699 231.195 531.438 229.873 530.928 228.639C530.418 227.405 529.669 226.284 528.726 225.34C527.782 224.395 526.662 223.646 525.428 223.135C524.195 222.623 522.873 222.36 521.538 222.36H352.638C350.823 222.361 349.041 222.848 347.478 223.77L313.678 243.7C311.519 244.974 309.906 247 309.149 249.391C308.392 251.781 308.545 254.366 309.578 256.65V256.65Z" fill="#181818"/>
<path opacity="0.5" d="M539.608 231.96V431.3C539.607 432.635 539.868 433.958 540.378 435.191C540.888 436.425 541.637 437.547 542.58 438.491C543.524 439.436 544.644 440.185 545.878 440.696C547.111 441.207 548.433 441.47 549.768 441.47H661.578C664.275 441.47 666.862 440.399 668.769 438.492C670.676 436.584 671.748 433.998 671.748 431.3V233.56C671.748 230.883 670.691 228.314 668.808 226.411C666.924 224.509 664.365 223.427 661.688 223.4C637.238 223.17 574.908 222.53 550.058 221.8C548.699 221.76 547.346 221.993 546.079 222.486C544.812 222.979 543.657 223.721 542.682 224.668C541.708 225.616 540.933 226.75 540.405 228.002C539.877 229.255 539.606 230.601 539.608 231.96V231.96Z" fill="#181818"/>
<path opacity="0.5" d="M680.778 235.36V429.04C680.778 431.734 681.847 434.317 683.75 436.224C685.653 438.131 688.235 439.205 690.928 439.21H794.828C797.526 439.21 800.112 438.138 802.02 436.231C803.927 434.324 804.998 431.737 804.998 429.04V416.62C804.998 415.286 805.261 413.965 805.772 412.732C806.282 411.499 807.031 410.379 807.974 409.436C808.918 408.492 810.038 407.744 811.27 407.233C812.503 406.723 813.824 406.46 815.158 406.46H921.328C922.663 406.46 923.985 406.197 925.219 405.686C926.452 405.174 927.573 404.425 928.516 403.481C929.46 402.536 930.208 401.415 930.718 400.181C931.228 398.947 931.49 397.625 931.488 396.29V396.29C931.487 394.952 931.75 393.628 932.262 392.392C932.774 391.156 933.524 390.034 934.471 389.089C935.418 388.144 936.542 387.395 937.779 386.886C939.016 386.376 940.341 386.116 941.678 386.12H978.118C980.314 386.12 982.451 385.409 984.208 384.093C985.966 382.777 987.25 380.927 987.868 378.82L1023.33 258.26C1023.9 256.326 1023.88 254.266 1023.27 252.342C1022.67 250.419 1021.5 248.72 1019.93 247.46L994.188 226.86C992.366 225.407 990.099 224.623 987.768 224.64C957.218 224.85 741.338 226.33 691.168 225.19C689.814 225.159 688.467 225.4 687.207 225.897C685.947 226.395 684.8 227.139 683.831 228.087C682.863 229.034 682.095 230.166 681.57 231.415C681.046 232.664 680.777 234.005 680.778 235.36V235.36Z" fill="#181818"/>
<path opacity="0.5" d="M813.928 216.72H982.388C985.084 216.717 987.668 215.645 989.573 213.738C991.478 211.831 992.548 209.245 992.548 206.55V161.37C992.548 158.675 991.478 156.091 989.572 154.186C987.667 152.28 985.083 151.21 982.388 151.21H813.238C811.879 151.209 810.534 151.482 809.282 152.01C808.03 152.539 806.897 153.313 805.95 154.288C805.002 155.262 804.26 156.416 803.767 157.683C803.274 158.949 803.04 160.302 803.078 161.66C803.438 173.94 803.918 194.18 803.708 206.4C803.688 207.752 803.938 209.095 804.444 210.35C804.949 211.604 805.699 212.745 806.651 213.706C807.603 214.667 808.737 215.429 809.986 215.946C811.236 216.464 812.576 216.727 813.928 216.72V216.72Z" fill="#181818"/>
</g>
<path opacity="0.2" d="M83.2788 182.33L271.149 81.75C271.899 81.349 272.467 80.6745 272.733 79.8663C272.999 79.0582 272.944 78.1785 272.579 77.41L237.649 3.86997C237.109 2.71997 235.749 0.289971 234.479 0.279971H16.2088C0.818809 -0.0900292 -2.24119 11.71 2.54881 21.72L78.7288 180.84C78.9218 181.244 79.1947 181.604 79.5309 181.9C79.8672 182.195 80.2598 182.419 80.6851 182.558C81.1104 182.697 81.5595 182.749 82.0053 182.71C82.4512 182.671 82.8844 182.541 83.2788 182.33V182.33Z" fill="#181818"/>
<path opacity="0.2" d="M954.729 718.01V639.4C954.728 637.828 955.082 636.275 955.766 634.859C956.45 633.443 957.445 632.2 958.677 631.223C959.909 630.246 961.346 629.56 962.881 629.217C964.415 628.873 966.008 628.881 967.538 629.24L1070.14 653.33C1072.77 653.95 1075.06 655.565 1076.52 657.836C1077.98 660.108 1078.51 662.859 1077.99 665.51L1066.99 719.51C1066.29 721.713 1065 723.68 1063.25 725.19C1061.5 726.7 1059.37 727.694 1057.09 728.06L965.199 728.47C963.823 728.475 962.46 728.208 961.188 727.685C959.916 727.161 958.76 726.391 957.787 725.419C956.814 724.447 956.043 723.291 955.518 722.02C954.993 720.748 954.725 719.386 954.729 718.01V718.01Z" fill="#181818"/>
</svg>
